# xmcd CD database file
#
# Track frame offsets:
#	150
#	13421
#	25450
#	39727
#	51319
#	67470
#	76505
#	88485
#	98762
#	110122
#	123997
#	143737
#	156141
#	167437
#
# Disc length: 2390 seconds
#
# Revision: 1
# Processed by: cddbd v1.5.2PL0 Copyright (c) Steve Scherf et al.
# Submitted via: CDex 1.50
#
DISCID=c409540e
DTITLE=Jacques Houdek - Kad si sretan
DYEAR=2005
DGENRE=Djecje
TTITLE0=Kad si sretan
TTITLE1=Cemu sluze roditelji (feat Gabi i Arsen)
TTITLE2=Kauboj i indijanac
TTITLE3=Kad Anine noge gaze
TTITLE4=Zeko i potocic
TTITLE5=Tata kupi mi auto (feat Mala Danijela)
TTITLE6=Jedan obican zir (feat Dino Jelusic)
TTITLE7=Nije lako bubamarcu
TTITLE8=Majka
TTITLE9=Kad se male ruke sloze
TTITLE10=Svaki dan se to dogadja
TTITLE11=Novogodisnja pjesma
TTITLE12=Zvoncici
TTITLE13=Veseli vokali
EXTD=YEAR: 2005
EXTT0=
EXTT1=
EXTT2=
EXTT3=
EXTT4=
EXTT5=
EXTT6=
EXTT7=
EXTT8=
EXTT9=
EXTT10=
EXTT11=
EXTT12=
EXTT13=
PLAYORDER=
